<svg width="68" height="68" viewBox="0 0 68 68" fill="none" xmlns="http://www.w3.org/2000/svg">
<path d="M33.6667 5.66663C27.6551 5.66663 21.8897 8.05471 17.6389 12.3055C13.3881 16.5564 11 22.3217 11 28.3333C11 43.4633 28.425 62.3333 33.6667 62.3333C38.9083 62.3333 56.3333 43.4633 56.3333 28.3333C56.3333 22.3217 53.9452 16.5564 49.6944 12.3055C45.4436 8.05471 39.6782 5.66663 33.6667 5.66663ZM33.6667 39.6666C31.4251 39.6666 29.234 39.0019 27.3702 37.7566C25.5064 36.5113 24.0538 34.7413 23.196 32.6704C22.3382 30.5995 22.1138 28.3207 22.5511 26.1223C22.9884 23.9238 24.0678 21.9044 25.6528 20.3194C27.2378 18.7344 29.2572 17.655 31.4556 17.2177C33.6541 16.7804 35.9328 17.0049 38.0037 17.8627C40.0746 18.7205 41.8447 20.1731 43.09 22.0368C44.3353 23.9006 45 26.0918 45 28.3333C45 31.3391 43.8059 34.2218 41.6805 36.3472C39.5551 38.4726 36.6724 39.6666 33.6667 39.6666Z" fill="#252B31"/>
</svg>
