<svg width="26" height="26" viewBox="0 0 26 26" fill="none" xmlns="http://www.w3.org/2000/svg">
<path d="M8.66669 18.4166L13 22.75L17.3334 18.4166" stroke="#C99D75" stroke-width="2" stroke-linecap="round" stroke-linejoin="round"/>
<path d="M13 13V22.75" stroke="#C99D75" stroke-width="2" stroke-linecap="round" stroke-linejoin="round"/>
<path d="M22.62 19.5975C23.5618 18.9352 24.2681 17.99 24.6363 16.8991C25.0046 15.8082 25.0156 14.6283 24.6679 13.5307C24.3201 12.4331 23.6316 11.4748 22.7024 10.795C21.7731 10.1152 20.6514 9.74915 19.5 9.75005H18.135C17.8091 8.48024 17.1995 7.3009 16.3519 6.3008C15.5044 5.30071 14.4409 4.50591 13.2418 3.97627C12.0426 3.44662 10.7389 3.19591 9.42878 3.24303C8.11868 3.29014 6.83635 3.63384 5.67831 4.24826C4.52027 4.86268 3.5167 5.7318 2.74316 6.7902C1.96962 7.84859 1.44626 9.06868 1.21249 10.3586C0.978717 11.6485 1.04062 12.9747 1.39354 14.2372C1.74645 15.4998 2.38119 16.6658 3.24996 17.6475" stroke="#C99D75" stroke-width="2" stroke-linecap="round" stroke-linejoin="round"/>
</svg>
