<svg width="51" height="25" viewBox="0 0 51 25" fill="none" xmlns="http://www.w3.org/2000/svg">
<path d="M24.2132 12.7899L22.833 13.5171L24.2132 12.7899ZM4.1165 7.42559C4.34867 6.5959 3.86428 5.73509 3.03458 5.50293C2.20489 5.27076 1.34408 5.75515 1.11191 6.58484L4.1165 7.42559ZM4.8046 1.57357C4.0795 2.03888 3.8689 3.00391 4.33421 3.72901C4.79953 4.45411 5.76455 4.66471 6.48965 4.1994L4.8046 1.57357ZM10.5526 3.21649C11.4127 3.26729 12.1511 2.61124 12.2018 1.75118C12.2526 0.89111 11.5966 0.152713 10.7365 0.10192L10.5526 3.21649ZM16.3584 1.80963C15.6044 1.39269 14.6552 1.66591 14.2383 2.41987C13.8214 3.17383 14.0946 4.12303 14.8485 4.53996L16.3584 1.80963ZM18.5834 7.47214C19.1811 8.09263 20.1687 8.11109 20.7892 7.51336C21.4097 6.91563 21.4281 5.92806 20.8304 5.30757L18.5834 7.47214ZM24.2207 9.68262C23.7606 8.9542 22.7971 8.73668 22.0687 9.19679C21.3403 9.65689 21.1228 10.6204 21.5829 11.3488L24.2207 9.68262ZM24.0066 15.5511C24.4668 16.2795 25.4303 16.4969 26.1587 16.0368C26.8871 15.5766 27.1045 14.6131 26.6444 13.8847L24.0066 15.5511ZM29.1574 17.1565C28.5663 16.5297 27.579 16.5009 26.9522 17.092C26.3255 17.6832 26.2966 18.6705 26.8877 19.2972L29.1574 17.1565ZM30.5947 22.3733C31.3246 22.831 32.2873 22.6103 32.7451 21.8804C33.2028 21.1505 32.9821 20.1877 32.2522 19.73L30.5947 22.3733ZM35.8446 21.2635C35.0063 21.0646 34.1655 21.5829 33.9666 22.4212C33.7677 23.2595 34.286 24.1003 35.1243 24.2992L35.8446 21.2635ZM40.1342 24.5024C40.9847 24.365 41.5628 23.5641 41.4254 22.7135C41.288 21.863 40.4871 21.2849 39.6366 21.4223L40.1342 24.5024ZM43.1029 20.0569C42.3898 20.5404 42.2037 21.5104 42.6872 22.2235C43.1707 22.9366 44.1407 23.1227 44.8538 22.6392L43.1029 20.0569ZM48.3266 18.9253C48.7627 18.1822 48.5138 17.2264 47.7708 16.7903C47.0277 16.3542 46.0718 16.6031 45.6358 17.3461L48.3266 18.9253ZM46.835 13.7581C46.7251 14.6126 47.3288 15.3944 48.1833 15.5043C49.0378 15.6142 49.8197 15.0106 49.9295 14.1561L46.835 13.7581ZM3.88693 9.52953C3.85393 8.76427 3.93885 8.06047 4.1165 7.42559L1.11191 6.58484C0.841784 7.5502 0.723253 8.58393 0.76983 9.66396L3.88693 9.52953ZM6.48965 4.1994C7.57338 3.50395 8.96488 3.12273 10.5526 3.21649L10.7365 0.10192C8.53774 -0.0279354 6.48302 0.496488 4.8046 1.57357L6.48965 4.1994ZM14.8485 4.53996C16.0721 5.2166 17.3349 6.17605 18.5834 7.47214L20.8304 5.30757C19.3867 3.80889 17.8798 2.65095 16.3584 1.80963L14.8485 4.53996ZM21.5829 11.3488C22.0085 12.0227 22.4261 12.7447 22.833 13.5171L25.5933 12.0628C25.1499 11.2211 24.6917 10.4282 24.2207 9.68262L21.5829 11.3488ZM22.833 13.5171C23.2094 14.2314 23.6011 14.9092 24.0066 15.5511L26.6444 13.8847C26.2839 13.3141 25.9329 12.7073 25.5933 12.0628L22.833 13.5171ZM26.8877 19.2972C28.0661 20.5465 29.3115 21.5686 30.5947 22.3733L32.2522 19.73C31.2074 19.0748 30.1654 18.2251 29.1574 17.1565L26.8877 19.2972ZM35.1243 24.2992C36.8318 24.7044 38.5275 24.7619 40.1342 24.5024L39.6366 21.4223C38.445 21.6148 37.1632 21.5764 35.8446 21.2635L35.1243 24.2992ZM44.8538 22.6392C46.2534 21.6902 47.4415 20.4334 48.3266 18.9253L45.6358 17.3461C44.9864 18.4526 44.1199 19.3673 43.1029 20.0569L44.8538 22.6392ZM49.9295 14.1561C50.0321 13.3582 50.0673 12.5302 50.0305 11.6765L46.9134 11.8109C46.9428 12.4921 46.9143 13.1419 46.835 13.7581L49.9295 14.1561Z" fill="#C99D75"/>
</svg>
