<svg width="51" height="25" viewBox="0 0 51 25" fill="none" xmlns="http://www.w3.org/2000/svg">
<path d="M24.3584 12.7899L22.9782 13.5171L24.3584 12.7899ZM4.2617 7.42559C4.49387 6.5959 4.00948 5.73509 3.17979 5.50293C2.35009 5.27076 1.48928 5.75515 1.25712 6.58484L4.2617 7.42559ZM4.9498 1.57357C4.2247 2.03888 4.0141 3.00391 4.47941 3.72901C4.94473 4.45411 5.90975 4.66471 6.63486 4.1994L4.9498 1.57357ZM10.6978 3.21649C11.5579 3.26729 12.2963 2.61124 12.347 1.75118C12.3978 0.89111 11.7418 0.152713 10.8817 0.10192L10.6978 3.21649ZM16.5036 1.80963C15.7496 1.39269 14.8004 1.66591 14.3835 2.41987C13.9666 3.17383 14.2398 4.12303 14.9937 4.53996L16.5036 1.80963ZM18.7286 7.47214C19.3263 8.09263 20.3139 8.11109 20.9344 7.51336C21.5549 6.91563 21.5733 5.92806 20.9756 5.30757L18.7286 7.47214ZM24.3659 9.68262C23.9058 8.9542 22.9423 8.73668 22.2139 9.19679C21.4855 9.65689 21.268 10.6204 21.7281 11.3488L24.3659 9.68262ZM24.1518 15.5511C24.612 16.2795 25.5755 16.4969 26.3039 16.0368C27.0323 15.5766 27.2497 14.6131 26.7896 13.8847L24.1518 15.5511ZM29.3026 17.1565C28.7115 16.5297 27.7242 16.5009 27.0974 17.092C26.4707 17.6832 26.4418 18.6705 27.033 19.2972L29.3026 17.1565ZM30.7399 22.3733C31.4698 22.831 32.4325 22.6103 32.8903 21.8804C33.348 21.1505 33.1273 20.1877 32.3974 19.73L30.7399 22.3733ZM35.9898 21.2635C35.1515 21.0646 34.3107 21.5829 34.1118 22.4212C33.9129 23.2595 34.4312 24.1003 35.2695 24.2992L35.9898 21.2635ZM40.2794 24.5024C41.1299 24.365 41.708 23.5641 41.5706 22.7135C41.4332 21.863 40.6323 21.2849 39.7818 21.4223L40.2794 24.5024ZM43.2481 20.0569C42.535 20.5404 42.3489 21.5104 42.8324 22.2235C43.3159 22.9366 44.2859 23.1227 44.999 22.6392L43.2481 20.0569ZM48.4718 18.9253C48.9079 18.1822 48.659 17.2264 47.916 16.7903C47.1729 16.3542 46.217 16.6031 45.781 17.3461L48.4718 18.9253ZM46.9802 13.7581C46.8703 14.6126 47.474 15.3944 48.3285 15.5043C49.183 15.6142 49.9649 15.0106 50.0747 14.1561L46.9802 13.7581ZM4.03214 9.52953C3.99913 8.76427 4.08405 8.06047 4.2617 7.42559L1.25712 6.58484C0.986986 7.5502 0.868456 8.58393 0.915033 9.66396L4.03214 9.52953ZM6.63486 4.1994C7.71858 3.50395 9.11008 3.12273 10.6978 3.21649L10.8817 0.10192C8.68294 -0.0279354 6.62823 0.496488 4.9498 1.57357L6.63486 4.1994ZM14.9937 4.53996C16.2173 5.2166 17.4801 6.17605 18.7286 7.47214L20.9756 5.30757C19.5319 3.80889 18.025 2.65095 16.5036 1.80963L14.9937 4.53996ZM21.7281 11.3488C22.1537 12.0227 22.5713 12.7447 22.9782 13.5171L25.7386 12.0628C25.2951 11.2211 24.8369 10.4282 24.3659 9.68262L21.7281 11.3488ZM22.9782 13.5171C23.3546 14.2314 23.7463 14.9092 24.1518 15.5511L26.7896 13.8847C26.4291 13.3141 26.0781 12.7073 25.7386 12.0628L22.9782 13.5171ZM27.033 19.2972C28.2113 20.5465 29.4567 21.5686 30.7399 22.3733L32.3974 19.73C31.3526 19.0748 30.3106 18.2251 29.3026 17.1565L27.033 19.2972ZM35.2695 24.2992C36.977 24.7044 38.6727 24.7619 40.2794 24.5024L39.7818 21.4223C38.5902 21.6148 37.3084 21.5764 35.9898 21.2635L35.2695 24.2992ZM44.999 22.6392C46.3986 21.6902 47.5868 20.4334 48.4718 18.9253L45.781 17.3461C45.1316 18.4526 44.2651 19.3673 43.2481 20.0569L44.999 22.6392ZM50.0747 14.1561C50.1774 13.3582 50.2125 12.5302 50.1757 11.6765L47.0586 11.8109C47.088 12.4921 47.0595 13.1419 46.9802 13.7581L50.0747 14.1561Z" fill="white"/>
</svg>
