<svg width="151" height="17" viewBox="0 0 151 17" fill="none" xmlns="http://www.w3.org/2000/svg">
<path d="M9.58 16L6.88 12.1H6.72H3.9V16H0.66V2H6.72C7.96 2 9.03333 2.20667 9.94 2.62C10.86 3.03333 11.5667 3.62 12.06 4.38C12.5533 5.14 12.8 6.04 12.8 7.08C12.8 8.12 12.5467 9.02 12.04 9.78C11.5467 10.5267 10.84 11.1 9.92 11.5L13.06 16H9.58ZM9.52 7.08C9.52 6.29333 9.26667 5.69333 8.76 5.28C8.25333 4.85333 7.51333 4.64 6.54 4.64H3.9V9.52H6.54C7.51333 9.52 8.25333 9.30667 8.76 8.88C9.26667 8.45333 9.52 7.85333 9.52 7.08ZM25.987 5.24V16H23.027V14.72C22.6137 15.1867 22.1204 15.5467 21.547 15.8C20.9737 16.04 20.3537 16.16 19.687 16.16C18.2737 16.16 17.1537 15.7533 16.327 14.94C15.5004 14.1267 15.087 12.92 15.087 11.32V5.24H18.207V10.86C18.207 12.5933 18.9337 13.46 20.387 13.46C21.1337 13.46 21.7337 13.22 22.187 12.74C22.6404 12.2467 22.867 11.52 22.867 10.56V5.24H25.987ZM32.4975 16.16C31.6042 16.16 30.7308 16.0533 29.8775 15.84C29.0242 15.6133 28.3442 15.3333 27.8375 15L28.8775 12.76C29.3575 13.0667 29.9375 13.32 30.6175 13.52C31.2975 13.7067 31.9642 13.8 32.6175 13.8C33.9375 13.8 34.5975 13.4733 34.5975 12.82C34.5975 12.5133 34.4175 12.2933 34.0575 12.16C33.6975 12.0267 33.1442 11.9133 32.3975 11.82C31.5175 11.6867 30.7908 11.5333 30.2175 11.36C29.6442 11.1867 29.1442 10.88 28.7175 10.44C28.3042 10 28.0975 9.37333 28.0975 8.56C28.0975 7.88 28.2908 7.28 28.6775 6.76C29.0775 6.22667 29.6508 5.81333 30.3975 5.52C31.1575 5.22667 32.0508 5.08 33.0775 5.08C33.8375 5.08 34.5908 5.16667 35.3375 5.34C36.0975 5.5 36.7242 5.72667 37.2175 6.02L36.1775 8.24C35.2308 7.70667 34.1975 7.44 33.0775 7.44C32.4108 7.44 31.9108 7.53333 31.5775 7.72C31.2442 7.90667 31.0775 8.14667 31.0775 8.44C31.0775 8.77333 31.2575 9.00667 31.6175 9.14C31.9775 9.27333 32.5508 9.4 33.3375 9.52C34.2175 9.66667 34.9375 9.82667 35.4975 10C36.0575 10.16 36.5442 10.46 36.9575 10.9C37.3708 11.34 37.5775 11.9533 37.5775 12.74C37.5775 13.4067 37.3775 14 36.9775 14.52C36.5775 15.04 35.9908 15.4467 35.2175 15.74C34.4575 16.02 33.5508 16.16 32.4975 16.16ZM43.1225 16.16C42.2292 16.16 41.3558 16.0533 40.5025 15.84C39.6492 15.6133 38.9692 15.3333 38.4625 15L39.5025 12.76C39.9825 13.0667 40.5625 13.32 41.2425 13.52C41.9225 13.7067 42.5892 13.8 43.2425 13.8C44.5625 13.8 45.2225 13.4733 45.2225 12.82C45.2225 12.5133 45.0425 12.2933 44.6825 12.16C44.3225 12.0267 43.7692 11.9133 43.0225 11.82C42.1425 11.6867 41.4158 11.5333 40.8425 11.36C40.2692 11.1867 39.7692 10.88 39.3425 10.44C38.9292 10 38.7225 9.37333 38.7225 8.56C38.7225 7.88 38.9158 7.28 39.3025 6.76C39.7025 6.22667 40.2758 5.81333 41.0225 5.52C41.7825 5.22667 42.6758 5.08 43.7025 5.08C44.4625 5.08 45.2158 5.16667 45.9625 5.34C46.7225 5.5 47.3492 5.72667 47.8425 6.02L46.8025 8.24C45.8558 7.70667 44.8225 7.44 43.7025 7.44C43.0358 7.44 42.5358 7.53333 42.2025 7.72C41.8692 7.90667 41.7025 8.14667 41.7025 8.44C41.7025 8.77333 41.8825 9.00667 42.2425 9.14C42.6025 9.27333 43.1758 9.4 43.9625 9.52C44.8425 9.66667 45.5625 9.82667 46.1225 10C46.6825 10.16 47.1692 10.46 47.5825 10.9C47.9958 11.34 48.2025 11.9533 48.2025 12.74C48.2025 13.4067 48.0025 14 47.6025 14.52C47.2025 15.04 46.6158 15.4467 45.8425 15.74C45.0825 16.02 44.1758 16.16 43.1225 16.16ZM50.1275 5.24H53.2475V16H50.1275V5.24ZM51.6875 3.74C51.1142 3.74 50.6475 3.57333 50.2875 3.24C49.9275 2.90667 49.7475 2.49333 49.7475 2C49.7475 1.50667 49.9275 1.09333 50.2875 0.76C50.6475 0.426666 51.1142 0.259999 51.6875 0.259999C52.2608 0.259999 52.7275 0.419999 53.0875 0.74C53.4475 1.06 53.6275 1.46 53.6275 1.94C53.6275 2.46 53.4475 2.89333 53.0875 3.24C52.7275 3.57333 52.2608 3.74 51.6875 3.74ZM60.4831 5.08C62.1498 5.08 63.4298 5.48 64.3231 6.28C65.2165 7.06667 65.6631 8.26 65.6631 9.86V16H62.7431V14.66C62.1565 15.66 61.0631 16.16 59.4631 16.16C58.6365 16.16 57.9165 16.02 57.3031 15.74C56.7031 15.46 56.2431 15.0733 55.9231 14.58C55.6031 14.0867 55.4431 13.5267 55.4431 12.9C55.4431 11.9 55.8165 11.1133 56.5631 10.54C57.3231 9.96667 58.4898 9.68 60.0631 9.68H62.5431C62.5431 9 62.3365 8.48 61.9231 8.12C61.5098 7.74667 60.8898 7.56 60.0631 7.56C59.4898 7.56 58.9231 7.65333 58.3631 7.84C57.8165 8.01333 57.3498 8.25333 56.9631 8.56L55.8431 6.38C56.4298 5.96667 57.1298 5.64667 57.9431 5.42C58.7698 5.19333 59.6165 5.08 60.4831 5.08ZM60.2431 14.06C60.7765 14.06 61.2498 13.94 61.6631 13.7C62.0765 13.4467 62.3698 13.08 62.5431 12.6V11.5H60.4031C59.1231 11.5 58.4831 11.92 58.4831 12.76C58.4831 13.16 58.6365 13.48 58.9431 13.72C59.2631 13.9467 59.6965 14.06 60.2431 14.06ZM75.0269 5.08C76.3602 5.08 77.4335 5.48 78.2469 6.28C79.0735 7.08 79.4869 8.26667 79.4869 9.84V16H76.3669V10.32C76.3669 9.46667 76.1802 8.83333 75.8069 8.42C75.4335 7.99333 74.8935 7.78 74.1869 7.78C73.4002 7.78 72.7735 8.02667 72.3069 8.52C71.8402 9 71.6069 9.72 71.6069 10.68V16H68.4869V5.24H71.4669V6.5C71.8802 6.04667 72.3935 5.7 73.0069 5.46C73.6202 5.20667 74.2935 5.08 75.0269 5.08Z" fill="#C99D75"/>
<path d="M97.1191 16L94.4191 12.1H94.2591H91.4391V16H88.1991V2H94.2591C95.4991 2 96.5724 2.20667 97.4791 2.62C98.3991 3.03333 99.1057 3.62 99.5991 4.38C100.092 5.14 100.339 6.04 100.339 7.08C100.339 8.12 100.086 9.02 99.5791 9.78C99.0857 10.5267 98.3791 11.1 97.4591 11.5L100.599 16H97.1191ZM97.0591 7.08C97.0591 6.29333 96.8057 5.69333 96.2991 5.28C95.7924 4.85333 95.0524 4.64 94.0791 4.64H91.4391V9.52H94.0791C95.0524 9.52 95.7924 9.30667 96.2991 8.88C96.8057 8.45333 97.0591 7.85333 97.0591 7.08ZM107.806 16.16C106.673 16.16 105.653 15.9267 104.746 15.46C103.853 14.98 103.153 14.32 102.646 13.48C102.139 12.64 101.886 11.6867 101.886 10.62C101.886 9.55333 102.139 8.6 102.646 7.76C103.153 6.92 103.853 6.26667 104.746 5.8C105.653 5.32 106.673 5.08 107.806 5.08C108.939 5.08 109.953 5.32 110.846 5.8C111.739 6.26667 112.439 6.92 112.946 7.76C113.453 8.6 113.706 9.55333 113.706 10.62C113.706 11.6867 113.453 12.64 112.946 13.48C112.439 14.32 111.739 14.98 110.846 15.46C109.953 15.9267 108.939 16.16 107.806 16.16ZM107.806 13.6C108.606 13.6 109.259 13.3333 109.766 12.8C110.286 12.2533 110.546 11.5267 110.546 10.62C110.546 9.71333 110.286 8.99333 109.766 8.46C109.259 7.91333 108.606 7.64 107.806 7.64C107.006 7.64 106.346 7.91333 105.826 8.46C105.306 8.99333 105.046 9.71333 105.046 10.62C105.046 11.5267 105.306 12.2533 105.826 12.8C106.346 13.3333 107.006 13.6 107.806 13.6ZM119.956 5.08C121.622 5.08 122.902 5.48 123.796 6.28C124.689 7.06667 125.136 8.26 125.136 9.86V16H122.216V14.66C121.629 15.66 120.536 16.16 118.936 16.16C118.109 16.16 117.389 16.02 116.776 15.74C116.176 15.46 115.716 15.0733 115.396 14.58C115.076 14.0867 114.916 13.5267 114.916 12.9C114.916 11.9 115.289 11.1133 116.036 10.54C116.796 9.96667 117.962 9.68 119.536 9.68H122.016C122.016 9 121.809 8.48 121.396 8.12C120.982 7.74667 120.362 7.56 119.536 7.56C118.962 7.56 118.396 7.65333 117.836 7.84C117.289 8.01333 116.822 8.25333 116.436 8.56L115.316 6.38C115.902 5.96667 116.602 5.64667 117.416 5.42C118.242 5.19333 119.089 5.08 119.956 5.08ZM119.716 14.06C120.249 14.06 120.722 13.94 121.136 13.7C121.549 13.4467 121.842 13.08 122.016 12.6V11.5H119.876C118.596 11.5 117.956 11.92 117.956 12.76C117.956 13.16 118.109 13.48 118.416 13.72C118.736 13.9467 119.169 14.06 119.716 14.06ZM139.037 1.16V16H136.057V14.76C135.283 15.6933 134.163 16.16 132.697 16.16C131.683 16.16 130.763 15.9333 129.937 15.48C129.123 15.0267 128.483 14.38 128.017 13.54C127.55 12.7 127.317 11.7267 127.317 10.62C127.317 9.51333 127.55 8.54 128.017 7.7C128.483 6.86 129.123 6.21333 129.937 5.76C130.763 5.30667 131.683 5.08 132.697 5.08C134.07 5.08 135.143 5.51333 135.917 6.38V1.16H139.037ZM133.237 13.6C134.023 13.6 134.677 13.3333 135.197 12.8C135.717 12.2533 135.977 11.5267 135.977 10.62C135.977 9.71333 135.717 8.99333 135.197 8.46C134.677 7.91333 134.023 7.64 133.237 7.64C132.437 7.64 131.777 7.91333 131.257 8.46C130.737 8.99333 130.477 9.71333 130.477 10.62C130.477 11.5267 130.737 12.2533 131.257 12.8C131.777 13.3333 132.437 13.6 133.237 13.6ZM145.544 16.16C144.651 16.16 143.778 16.0533 142.924 15.84C142.071 15.6133 141.391 15.3333 140.884 15L141.924 12.76C142.404 13.0667 142.984 13.32 143.664 13.52C144.344 13.7067 145.011 13.8 145.664 13.8C146.984 13.8 147.644 13.4733 147.644 12.82C147.644 12.5133 147.464 12.2933 147.104 12.16C146.744 12.0267 146.191 11.9133 145.444 11.82C144.564 11.6867 143.838 11.5333 143.264 11.36C142.691 11.1867 142.191 10.88 141.764 10.44C141.351 10 141.144 9.37333 141.144 8.56C141.144 7.88 141.338 7.28 141.724 6.76C142.124 6.22667 142.698 5.81333 143.444 5.52C144.204 5.22667 145.098 5.08 146.124 5.08C146.884 5.08 147.638 5.16667 148.384 5.34C149.144 5.5 149.771 5.72667 150.264 6.02L149.224 8.24C148.278 7.70667 147.244 7.44 146.124 7.44C145.458 7.44 144.958 7.53333 144.624 7.72C144.291 7.90667 144.124 8.14667 144.124 8.44C144.124 8.77333 144.304 9.00667 144.664 9.14C145.024 9.27333 145.598 9.4 146.384 9.52C147.264 9.66667 147.984 9.82667 148.544 10C149.104 10.16 149.591 10.46 150.004 10.9C150.418 11.34 150.624 11.9533 150.624 12.74C150.624 13.4067 150.424 14 150.024 14.52C149.624 15.04 149.038 15.4467 148.264 15.74C147.504 16.02 146.598 16.16 145.544 16.16Z" fill="white"/>
</svg>
