<svg width="40" height="40" viewBox="0 0 40 40" fill="none" xmlns="http://www.w3.org/2000/svg">
<path d="M20 3.33331C16.4638 3.33331 13.0724 4.73807 10.5719 7.23856C8.07143 9.73904 6.66667 13.1304 6.66667 16.6666C6.66667 25.5666 16.9167 36.6666 20 36.6666C23.0833 36.6666 33.3333 25.5666 33.3333 16.6666C33.3333 13.1304 31.9286 9.73904 29.4281 7.23856C26.9276 4.73807 23.5362 3.33331 20 3.33331ZM20 23.3333C18.6815 23.3333 17.3925 22.9423 16.2962 22.2098C15.1999 21.4772 14.3454 20.436 13.8408 19.2179C13.3362 17.9997 13.2042 16.6593 13.4614 15.366C13.7187 14.0728 14.3536 12.885 15.286 11.9526C16.2183 11.0203 17.4062 10.3853 18.6994 10.1281C19.9926 9.87084 21.333 10.0029 22.5512 10.5075C23.7694 11.012 24.8106 11.8665 25.5431 12.9628C26.2757 14.0592 26.6667 15.3481 26.6667 16.6666C26.6667 18.4348 25.9643 20.1304 24.714 21.3807C23.4638 22.6309 21.7681 23.3333 20 23.3333Z" fill="#D30000"/>
</svg>
