<svg width="28" height="28" viewBox="0 0 28 28" fill="none" xmlns="http://www.w3.org/2000/svg">
<path d="M19.5513 17.6094H16.502C16.2844 17.6094 16.0757 17.5229 15.9219 17.3691C15.7681 17.2153 15.6816 17.0066 15.6816 16.7891C15.6816 16.5715 15.7681 16.3628 15.9219 16.209C16.0757 16.0552 16.2844 15.9687 16.502 15.9687H19.5513C20.5605 15.9567 21.5242 15.5473 22.2336 14.8295C22.943 14.1116 23.3408 13.143 23.3408 12.1338C23.3408 11.1245 22.943 10.156 22.2336 9.4381C21.5242 8.72021 20.5605 8.31087 19.5513 8.29882C19.448 8.29882 19.338 8.30374 19.2155 8.31468C19.0605 8.32789 18.905 8.29676 18.767 8.22492C18.629 8.15307 18.5143 8.04347 18.4362 7.9089C17.8831 6.95476 17.0495 6.19413 16.0489 5.73043C15.0482 5.26673 13.929 5.12246 12.8434 5.31725C11.7579 5.51204 10.7587 6.03642 9.98167 6.8191C9.20465 7.60178 8.68753 8.60478 8.50062 9.69171C8.4672 9.88785 8.36363 10.0652 8.2092 10.1906C8.05477 10.3161 7.86 10.3811 7.66117 10.3737H7.6032C7.23013 10.3645 6.85899 10.4301 6.51163 10.5665C6.16428 10.7029 5.84772 10.9075 5.58058 11.1681C5.31345 11.4286 5.10113 11.74 4.95613 12.0839C4.81114 12.4278 4.73638 12.7972 4.73627 13.1704C4.73616 13.5435 4.8107 13.913 4.9555 14.2569C5.10029 14.6009 5.31242 14.9124 5.57941 15.1732C5.84639 15.4339 6.16283 15.6386 6.51011 15.7752C6.85738 15.9119 7.22848 15.9777 7.60156 15.9687H11.6873C11.9048 15.9687 12.1135 16.0552 12.2673 16.209C12.4212 16.3628 12.5076 16.5715 12.5076 16.7891C12.5076 17.0066 12.4212 17.2153 12.2673 17.3691C12.1135 17.5229 11.9048 17.6094 11.6873 17.6094H7.60156C6.47495 17.6083 5.39089 17.1789 4.56907 16.4083C3.74725 15.6377 3.24914 14.5834 3.17571 13.4592C3.10227 12.335 3.45899 11.2249 4.17358 10.3539C4.88817 9.48294 5.90716 8.91621 7.02406 8.76858C7.37464 7.47471 8.0889 6.30851 9.08215 5.40825C10.0754 4.50799 11.306 3.91143 12.628 3.68931C13.95 3.46718 15.3079 3.6288 16.5408 4.15502C17.7738 4.68123 18.8299 5.54995 19.5841 6.65819C21.0273 6.67628 22.4049 7.26336 23.4175 8.29178C24.4301 9.3202 24.9957 10.7068 24.9914 12.15C24.987 13.5933 24.4131 14.9764 23.3944 15.9988C22.3757 17.0211 20.9945 17.5999 19.5513 17.6094Z" fill="black"/>
<path d="M16.73 14.5534C16.6222 14.5535 16.5156 14.5323 16.4161 14.491C16.3166 14.4497 16.2263 14.3891 16.1503 14.3128L14.0951 12.2582L12.0405 14.3128C11.8844 14.4546 11.6797 14.5309 11.4688 14.5258C11.258 14.5207 11.0572 14.4345 10.9082 14.2852C10.7592 14.1359 10.6734 13.935 10.6687 13.7241C10.6639 13.5133 10.7406 13.3087 10.8828 13.1529L13.5176 10.518C13.6714 10.3642 13.88 10.2778 14.0976 10.2778C14.3151 10.2778 14.5237 10.3642 14.6775 10.518L17.3124 13.1529C17.4272 13.2676 17.5054 13.4138 17.537 13.573C17.5687 13.7321 17.5525 13.8971 17.4904 14.0471C17.4282 14.197 17.323 14.3251 17.1881 14.4153C17.0531 14.5054 16.8944 14.5535 16.7321 14.5534H16.73Z" fill="black"/>
<path d="M14.0952 20.9283C13.8776 20.9283 13.669 20.8419 13.5152 20.6881C13.3613 20.5342 13.2749 20.3256 13.2749 20.108V11.0983C13.2749 10.8807 13.3613 10.6721 13.5152 10.5182C13.669 10.3644 13.8776 10.278 14.0952 10.278C14.3128 10.278 14.5214 10.3644 14.6753 10.5182C14.8291 10.6721 14.9155 10.8807 14.9155 11.0983V20.108C14.9155 20.3256 14.8291 20.5342 14.6753 20.6881C14.5214 20.8419 14.3128 20.9283 14.0952 20.9283Z" fill="black"/>
</svg>
