<svg width="33" height="32" viewBox="0 0 33 32" fill="none" xmlns="http://www.w3.org/2000/svg">
<path d="M16.5 28.46C23.6576 28.46 29.46 22.6576 29.46 15.5C29.46 8.34243 23.6576 2.54004 16.5 2.54004C9.34243 2.54004 3.54004 8.34243 3.54004 15.5C3.54004 22.6576 9.34243 28.46 16.5 28.46Z" stroke="#C99D75" stroke-width="2" stroke-miterlimit="10" stroke-linecap="round"/>
<path d="M19.1639 21.1851C19.0851 20.3146 19.1153 19.7071 19.1153 18.9117C19.5095 18.7048 20.2158 17.3862 20.3352 16.2721C20.6451 16.2468 21.1338 15.9444 21.2769 14.7504C21.3542 14.1094 21.0474 13.7487 20.8606 13.6353C21.365 12.1185 22.4126 7.42587 18.9231 6.94095C18.564 6.31023 17.6444 5.99109 16.4493 5.99109C11.6682 6.07911 11.0915 9.60153 12.1396 13.6353C11.9533 13.7487 11.6466 14.1094 11.7233 14.7504C11.8669 15.9444 12.3551 16.2468 12.665 16.2721C12.7838 17.3856 13.5182 18.7048 13.9135 18.9117C13.9135 19.7071 13.9432 20.3146 13.8644 21.1851C13.1834 23.0157 9.68639 23.1588 7.66895 24.924C9.77819 27.0478 13.1964 28.5669 16.8036 28.5669C20.4108 28.5669 24.6509 25.7189 25.3566 24.9418C23.3516 23.1604 19.8465 23.0221 19.1639 21.1851Z" stroke="#C99D75" stroke-width="2" stroke-miterlimit="10" stroke-linecap="round"/>
</svg>
